<svg width="117" height="28" viewBox="0 0 117 28" fill="none" xmlns="http://www.w3.org/2000/svg">
<path d="M4.42206 1.832C5.5954 1.832 6.62473 2.06133 7.51006 2.52C8.40606 2.97867 9.09406 3.63467 9.57406 4.488C10.0647 5.33067 10.3101 6.312 10.3101 7.432C10.3101 8.552 10.0647 9.53333 9.57406 10.376C9.09406 11.208 8.40606 11.8533 7.51006 12.312C6.62473 12.7707 5.5954 13 4.42206 13H0.518063V1.832H4.42206ZM4.34206 11.096C5.5154 11.096 6.42206 10.776 7.06206 10.136C7.70206 9.496 8.02206 8.59467 8.02206 7.432C8.02206 6.26933 7.70206 5.36267 7.06206 4.712C6.42206 4.05067 5.5154 3.72 4.34206 3.72H2.75806V11.096H4.34206ZM11.4108 8.536C11.4108 7.64 11.5868 6.84533 11.9388 6.152C12.3015 5.45867 12.7868 4.92533 13.3948 4.552C14.0135 4.17867 14.7015 3.992 15.4588 3.992C16.1201 3.992 16.6961 4.12533 17.1868 4.392C17.6881 4.65867 18.0881 4.99467 18.3868 5.4V4.136H20.6428V13H18.3868V11.704C18.0988 12.12 17.6988 12.4667 17.1868 12.744C16.6855 13.0107 16.1041 13.144 15.4428 13.144C14.6961 13.144 14.0135 12.952 13.3948 12.568C12.7868 12.184 12.3015 11.6453 11.9388 10.952C11.5868 10.248 11.4108 9.44267 11.4108 8.536ZM18.3868 8.568C18.3868 8.024 18.2801 7.56 18.0668 7.176C17.8535 6.78133 17.5655 6.48267 17.2028 6.28C16.8401 6.06667 16.4508 5.96 16.0348 5.96C15.6188 5.96 15.2348 6.06133 14.8828 6.264C14.5308 6.46667 14.2428 6.76533 14.0188 7.16C13.8055 7.544 13.6988 8.00267 13.6988 8.536C13.6988 9.06933 13.8055 9.53867 14.0188 9.944C14.2428 10.3387 14.5308 10.6427 14.8828 10.856C15.2455 11.0693 15.6295 11.176 16.0348 11.176C16.4508 11.176 16.8401 11.0747 17.2028 10.872C17.5655 10.6587 17.8535 10.36 18.0668 9.976C18.2801 9.58133 18.3868 9.112 18.3868 8.568ZM27.7426 4.008C28.7986 4.008 29.6519 4.344 30.3026 5.016C30.9532 5.67733 31.2786 6.60533 31.2786 7.8V13H29.0386V8.104C29.0386 7.4 28.8626 6.86133 28.5106 6.488C28.1586 6.104 27.6786 5.912 27.0706 5.912C26.4519 5.912 25.9612 6.104 25.5986 6.488C25.2466 6.86133 25.0706 7.4 25.0706 8.104V13H22.8306V4.136H25.0706V5.24C25.3692 4.856 25.7479 4.55733 26.2066 4.344C26.6759 4.12 27.1879 4.008 27.7426 4.008ZM34.5447 3.08C34.15 3.08 33.8194 2.95733 33.5527 2.712C33.2967 2.456 33.1687 2.14133 33.1687 1.768C33.1687 1.39467 33.2967 1.08533 33.5527 0.839999C33.8194 0.583999 34.15 0.455999 34.5447 0.455999C34.9394 0.455999 35.2647 0.583999 35.5207 0.839999C35.7874 1.08533 35.9207 1.39467 35.9207 1.768C35.9207 2.14133 35.7874 2.456 35.5207 2.712C35.2647 2.95733 34.9394 3.08 34.5447 3.08ZM35.6487 4.136V13H33.4087V4.136H35.6487ZM46.1018 8.376C46.1018 8.696 46.0805 8.984 46.0378 9.24H39.5578C39.6111 9.88 39.8351 10.3813 40.2298 10.744C40.6245 11.1067 41.1098 11.288 41.6858 11.288C42.5178 11.288 43.1098 10.9307 43.4618 10.216H45.8778C45.6218 11.0693 45.1311 11.7733 44.4058 12.328C43.6805 12.872 42.7898 13.144 41.7338 13.144C40.8805 13.144 40.1125 12.9573 39.4298 12.584C38.7578 12.2 38.2298 11.6613 37.8458 10.968C37.4725 10.2747 37.2858 9.47467 37.2858 8.568C37.2858 7.65067 37.4725 6.84533 37.8458 6.152C38.2191 5.45867 38.7418 4.92533 39.4138 4.552C40.0858 4.17867 40.8591 3.992 41.7338 3.992C42.5765 3.992 43.3285 4.17333 43.9898 4.536C44.6618 4.89867 45.1791 5.416 45.5418 6.088C45.9151 6.74933 46.1018 7.512 46.1018 8.376ZM43.7818 7.736C43.7711 7.16 43.5631 6.70133 43.1578 6.36C42.7525 6.008 42.2565 5.832 41.6698 5.832C41.1151 5.832 40.6458 6.00267 40.2618 6.344C39.8885 6.67467 39.6591 7.13867 39.5738 7.736H43.7818ZM49.9768 1.16V13H47.7368V1.16H49.9768ZM61.1864 13.112C60.1411 13.112 59.1811 12.8667 58.3064 12.376C57.4318 11.8853 56.7384 11.208 56.2264 10.344C55.7144 9.46933 55.4584 8.48267 55.4584 7.384C55.4584 6.296 55.7144 5.32 56.2264 4.456C56.7384 3.58133 57.4318 2.89867 58.3064 2.408C59.1811 1.91733 60.1411 1.672 61.1864 1.672C62.2424 1.672 63.2024 1.91733 64.0664 2.408C64.9411 2.89867 65.6291 3.58133 66.1304 4.456C66.6424 5.32 66.8984 6.296 66.8984 7.384C66.8984 8.48267 66.6424 9.46933 66.1304 10.344C65.6291 11.208 64.9411 11.8853 64.0664 12.376C63.1918 12.8667 62.2318 13.112 61.1864 13.112ZM61.1864 11.112C61.8584 11.112 62.4504 10.9627 62.9624 10.664C63.4744 10.3547 63.8744 9.91733 64.1624 9.352C64.4504 8.78667 64.5944 8.13067 64.5944 7.384C64.5944 6.63733 64.4504 5.98667 64.1624 5.432C63.8744 4.86667 63.4744 4.43467 62.9624 4.136C62.4504 3.83733 61.8584 3.688 61.1864 3.688C60.5144 3.688 59.9171 3.83733 59.3944 4.136C58.8824 4.43467 58.4824 4.86667 58.1944 5.432C57.9064 5.98667 57.7624 6.63733 57.7624 7.384C57.7624 8.13067 57.9064 8.78667 58.1944 9.352C58.4824 9.91733 58.8824 10.3547 59.3944 10.664C59.9171 10.9627 60.5144 11.112 61.1864 11.112ZM70.8049 1.16V13H68.5649V1.16H70.8049ZM74.1541 3.08C73.7594 3.08 73.4287 2.95733 73.1621 2.712C72.9061 2.456 72.7781 2.14133 72.7781 1.768C72.7781 1.39467 72.9061 1.08533 73.1621 0.839999C73.4287 0.583999 73.7594 0.455999 74.1541 0.455999C74.5487 0.455999 74.8741 0.583999 75.1301 0.839999C75.3967 1.08533 75.5301 1.39467 75.5301 1.768C75.5301 2.14133 75.3967 2.456 75.1301 2.712C74.8741 2.95733 74.5487 3.08 74.1541 3.08ZM75.2581 4.136V13H73.0181V4.136H75.2581ZM81.1672 10.936L83.4072 4.136H85.7912L82.5112 13H79.7912L76.5272 4.136H78.9272L81.1672 10.936ZM95.2893 8.376C95.2893 8.696 95.268 8.984 95.2253 9.24H88.7453C88.7986 9.88 89.0226 10.3813 89.4173 10.744C89.812 11.1067 90.2973 11.288 90.8733 11.288C91.7053 11.288 92.2973 10.9307 92.6493 10.216H95.0653C94.8093 11.0693 94.3186 11.7733 93.5933 12.328C92.868 12.872 91.9773 13.144 90.9213 13.144C90.068 13.144 89.3 12.9573 88.6173 12.584C87.9453 12.2 87.4173 11.6613 87.0333 10.968C86.66 10.2747 86.4733 9.47467 86.4733 8.568C86.4733 7.65067 86.66 6.84533 87.0333 6.152C87.4066 5.45867 87.9293 4.92533 88.6013 4.552C89.2733 4.17867 90.0466 3.992 90.9213 3.992C91.764 3.992 92.516 4.17333 93.1773 4.536C93.8493 4.89867 94.3666 5.416 94.7293 6.088C95.1026 6.74933 95.2893 7.512 95.2893 8.376ZM92.9693 7.736C92.9586 7.16 92.7506 6.70133 92.3453 6.36C91.94 6.008 91.444 5.832 90.8573 5.832C90.3026 5.832 89.8333 6.00267 89.4493 6.344C89.076 6.67467 88.8466 7.13867 88.7613 7.736H92.9693ZM98.0603 3.08C97.6656 3.08 97.335 2.95733 97.0683 2.712C96.8123 2.456 96.6843 2.14133 96.6843 1.768C96.6843 1.39467 96.8123 1.08533 97.0683 0.839999C97.335 0.583999 97.6656 0.455999 98.0603 0.455999C98.455 0.455999 98.7803 0.583999 99.0363 0.839999C99.303 1.08533 99.4363 1.39467 99.4363 1.768C99.4363 2.14133 99.303 2.456 99.0363 2.712C98.7803 2.95733 98.455 3.08 98.0603 3.08ZM99.1643 4.136V13H96.9243V4.136H99.1643ZM103.617 5.512C103.905 5.04267 104.279 4.67467 104.737 4.408C105.207 4.14133 105.74 4.008 106.337 4.008V6.36H105.745C105.041 6.36 104.508 6.52533 104.145 6.856C103.793 7.18667 103.617 7.76267 103.617 8.584V13H101.377V4.136H103.617V5.512ZM107.27 8.536C107.27 7.64 107.446 6.84533 107.798 6.152C108.161 5.45867 108.646 4.92533 109.254 4.552C109.873 4.17867 110.561 3.992 111.318 3.992C111.98 3.992 112.556 4.12533 113.046 4.392C113.548 4.65867 113.948 4.99467 114.246 5.4V4.136H116.502V13H114.246V11.704C113.958 12.12 113.558 12.4667 113.046 12.744C112.545 13.0107 111.964 13.144 111.302 13.144C110.556 13.144 109.873 12.952 109.254 12.568C108.646 12.184 108.161 11.6453 107.798 10.952C107.446 10.248 107.27 9.44267 107.27 8.536ZM114.246 8.568C114.246 8.024 114.14 7.56 113.926 7.176C113.713 6.78133 113.425 6.48267 113.062 6.28C112.7 6.06667 112.31 5.96 111.894 5.96C111.478 5.96 111.094 6.06133 110.742 6.264C110.39 6.46667 110.102 6.76533 109.878 7.16C109.665 7.544 109.558 8.00267 109.558 8.536C109.558 9.06933 109.665 9.53867 109.878 9.944C110.102 10.3387 110.39 10.6427 110.742 10.856C111.105 11.0693 111.489 11.176 111.894 11.176C112.31 11.176 112.7 11.0747 113.062 10.872C113.425 10.6587 113.713 10.36 113.926 9.976C114.14 9.58133 114.246 9.112 114.246 8.568Z" fill="white"/>
<path d="M5.26538 16.9845V17.8355H1.78088V20.538H4.60988V21.389H1.78088V25H0.734377V16.9845H5.26538ZM12.1183 18.698V25H11.0718V24.0685C10.8725 24.3905 10.5926 24.6435 10.2323 24.8275C9.87963 25.0038 9.48863 25.092 9.0593 25.092C8.56863 25.092 8.1278 24.9923 7.7368 24.793C7.3458 24.586 7.0353 24.2793 6.8053 23.873C6.58297 23.4667 6.4718 22.9722 6.4718 22.3895V18.698H7.5068V22.2515C7.5068 22.8725 7.66397 23.3517 7.9783 23.689C8.29263 24.0187 8.72197 24.1835 9.2663 24.1835C9.82597 24.1835 10.2668 24.011 10.5888 23.666C10.9108 23.321 11.0718 22.8188 11.0718 22.1595V18.698H12.1183ZM14.9318 16.49V25H13.8853V16.49H14.9318ZM17.7618 16.49V25H16.7153V16.49H17.7618ZM23.9154 20.3425V21.228H19.3269V20.3425H23.9154ZM28.1104 25.1035C27.6274 25.1035 27.1942 25.023 26.8109 24.862C26.4276 24.6933 26.1247 24.4633 25.9024 24.172C25.6801 23.873 25.5574 23.5318 25.5344 23.1485H26.6154C26.6461 23.4628 26.7917 23.7197 27.0524 23.919C27.3207 24.1183 27.6696 24.218 28.0989 24.218C28.4976 24.218 28.8119 24.1298 29.0419 23.9535C29.2719 23.7772 29.3869 23.5548 29.3869 23.2865C29.3869 23.0105 29.2642 22.8073 29.0189 22.677C28.7736 22.539 28.3941 22.4048 27.8804 22.2745C27.4127 22.1518 27.0294 22.0292 26.7304 21.9065C26.4391 21.7762 26.1861 21.5883 25.9714 21.343C25.7644 21.09 25.6609 20.7603 25.6609 20.354C25.6609 20.032 25.7567 19.7368 25.9484 19.4685C26.1401 19.2002 26.4122 18.9893 26.7649 18.836C27.1176 18.675 27.5201 18.5945 27.9724 18.5945C28.6701 18.5945 29.2336 18.7708 29.6629 19.1235C30.0922 19.4762 30.3222 19.9592 30.3529 20.5725H29.3064C29.2834 20.2428 29.1492 19.9783 28.9039 19.779C28.6662 19.5797 28.3442 19.48 27.9379 19.48C27.5622 19.48 27.2632 19.5605 27.0409 19.7215C26.8186 19.8825 26.7074 20.0933 26.7074 20.354C26.7074 20.561 26.7726 20.7335 26.9029 20.8715C27.0409 21.0018 27.2096 21.1092 27.4089 21.1935C27.6159 21.2702 27.8996 21.3583 28.2599 21.458C28.7122 21.5807 29.0802 21.7033 29.3639 21.826C29.6476 21.941 29.8891 22.1173 30.0884 22.355C30.2954 22.5927 30.4027 22.9032 30.4104 23.2865C30.4104 23.6315 30.3146 23.942 30.1229 24.218C29.9312 24.494 29.6591 24.7125 29.3064 24.8735C28.9614 25.0268 28.5627 25.1035 28.1104 25.1035ZM33.1642 19.5605V23.275C33.1642 23.5817 33.2294 23.8002 33.3597 23.9305C33.49 24.0532 33.7162 24.1145 34.0382 24.1145H34.8087V25H33.8657C33.283 25 32.846 24.8658 32.5547 24.5975C32.2634 24.3292 32.1177 23.8883 32.1177 23.275V19.5605H31.3012V18.698H32.1177V17.111H33.1642V18.698H34.8087V19.5605H33.1642ZM35.6857 21.826C35.6857 21.182 35.816 20.6185 36.0767 20.1355C36.3373 19.6448 36.6938 19.2653 37.1462 18.997C37.6062 18.7287 38.116 18.5945 38.6757 18.5945C39.2277 18.5945 39.7068 18.7133 40.1132 18.951C40.5195 19.1887 40.8223 19.4877 41.0217 19.848V18.698H42.0797V25H41.0217V23.827C40.8147 24.195 40.5042 24.5017 40.0902 24.747C39.6838 24.9847 39.2085 25.1035 38.6642 25.1035C38.1045 25.1035 37.5985 24.9655 37.1462 24.6895C36.6938 24.4135 36.3373 24.0263 36.0767 23.528C35.816 23.0297 35.6857 22.4623 35.6857 21.826ZM41.0217 21.8375C41.0217 21.3622 40.9258 20.9482 40.7342 20.5955C40.5425 20.2428 40.2818 19.9745 39.9522 19.7905C39.6302 19.5988 39.2737 19.503 38.8827 19.503C38.4917 19.503 38.1352 19.595 37.8132 19.779C37.4912 19.963 37.2343 20.2313 37.0427 20.584C36.851 20.9367 36.7552 21.3507 36.7552 21.826C36.7552 22.309 36.851 22.7307 37.0427 23.091C37.2343 23.4437 37.4912 23.7158 37.8132 23.9075C38.1352 24.0915 38.4917 24.1835 38.8827 24.1835C39.2737 24.1835 39.6302 24.0915 39.9522 23.9075C40.2818 23.7158 40.5425 23.4437 40.7342 23.091C40.9258 22.7307 41.0217 22.3128 41.0217 21.8375ZM43.4571 21.8375C43.4571 21.1858 43.5875 20.6185 43.8481 20.1355C44.1088 19.6448 44.4691 19.2653 44.9291 18.997C45.3968 18.7287 45.9296 18.5945 46.5276 18.5945C47.302 18.5945 47.9383 18.7823 48.4366 19.158C48.9426 19.5337 49.2761 20.055 49.4371 20.722H48.3101C48.2028 20.3387 47.992 20.0358 47.6776 19.8135C47.371 19.5912 46.9876 19.48 46.5276 19.48C45.9296 19.48 45.4466 19.687 45.0786 20.101C44.7106 20.5073 44.5266 21.0862 44.5266 21.8375C44.5266 22.5965 44.7106 23.183 45.0786 23.597C45.4466 24.011 45.9296 24.218 46.5276 24.218C46.9876 24.218 47.371 24.1107 47.6776 23.896C47.9843 23.6813 48.1951 23.3747 48.3101 22.976H49.4371C49.2685 23.62 48.9311 24.1375 48.4251 24.5285C47.9191 24.9118 47.2866 25.1035 46.5276 25.1035C45.9296 25.1035 45.3968 24.9693 44.9291 24.701C44.4691 24.4327 44.1088 24.0532 43.8481 23.5625C43.5875 23.0718 43.4571 22.4968 43.4571 21.8375ZM54.3525 25L51.88 22.217V25H50.8335V16.49H51.88V21.4925L54.3065 18.698H55.767L52.8 21.8375L55.7785 25H54.3525ZM62.3134 16.9845C63.1874 16.9845 63.9425 17.1493 64.5789 17.479C65.2229 17.801 65.7135 18.2648 66.0509 18.8705C66.3959 19.4762 66.5684 20.1892 66.5684 21.0095C66.5684 21.8298 66.3959 22.5428 66.0509 23.1485C65.7135 23.7465 65.2229 24.2065 64.5789 24.5285C63.9425 24.8428 63.1874 25 62.3134 25H59.8179V16.9845H62.3134ZM62.3134 24.1375C63.3484 24.1375 64.138 23.8653 64.6824 23.321C65.2267 22.769 65.4989 21.9985 65.4989 21.0095C65.4989 20.0128 65.2229 19.2347 64.6709 18.675C64.1265 18.1153 63.3407 17.8355 62.3134 17.8355H60.8644V24.1375H62.3134ZM73.6987 21.6075C73.6987 21.8068 73.6872 22.0177 73.6642 22.24H68.6272C68.6656 22.861 68.8764 23.3478 69.2597 23.7005C69.6507 24.0455 70.1222 24.218 70.6742 24.218C71.1266 24.218 71.5022 24.1145 71.8012 23.9075C72.1079 23.6928 72.3226 23.4092 72.4452 23.0565H73.5722C73.4036 23.6622 73.0662 24.1567 72.5602 24.54C72.0542 24.9157 71.4256 25.1035 70.6742 25.1035C70.0762 25.1035 69.5396 24.9693 69.0642 24.701C68.5966 24.4327 68.2286 24.0532 67.9602 23.5625C67.6919 23.0642 67.5577 22.4892 67.5577 21.8375C67.5577 21.1858 67.6881 20.6147 67.9487 20.124C68.2094 19.6333 68.5736 19.2577 69.0412 18.997C69.5166 18.7287 70.0609 18.5945 70.6742 18.5945C71.2722 18.5945 71.8012 18.7248 72.2612 18.9855C72.7212 19.2462 73.0739 19.6065 73.3192 20.0665C73.5722 20.5188 73.6987 21.0325 73.6987 21.6075ZM72.6177 21.389C72.6177 20.9903 72.5296 20.6492 72.3532 20.3655C72.1769 20.0742 71.9354 19.8557 71.6287 19.71C71.3297 19.5567 70.9962 19.48 70.6282 19.48C70.0992 19.48 69.6469 19.6487 69.2712 19.986C68.9032 20.3233 68.6924 20.791 68.6387 21.389H72.6177ZM77.4261 24.034L79.3811 18.698H80.4966L78.0241 25H76.8051L74.3326 18.698H75.4596L77.4261 24.034ZM87.2764 21.6075C87.2764 21.8068 87.2649 22.0177 87.2419 22.24H82.2049C82.2432 22.861 82.454 23.3478 82.8374 23.7005C83.2284 24.0455 83.6999 24.218 84.2519 24.218C84.7042 24.218 85.0799 24.1145 85.3789 23.9075C85.6855 23.6928 85.9002 23.4092 86.0229 23.0565H87.1499C86.9812 23.6622 86.6439 24.1567 86.1379 24.54C85.6319 24.9157 85.0032 25.1035 84.2519 25.1035C83.6539 25.1035 83.1172 24.9693 82.6419 24.701C82.1742 24.4327 81.8062 24.0532 81.5379 23.5625C81.2695 23.0642 81.1354 22.4892 81.1354 21.8375C81.1354 21.1858 81.2657 20.6147 81.5264 20.124C81.787 19.6333 82.1512 19.2577 82.6189 18.997C83.0942 18.7287 83.6385 18.5945 84.2519 18.5945C84.8499 18.5945 85.3789 18.7248 85.8389 18.9855C86.2989 19.2462 86.6515 19.6065 86.8969 20.0665C87.1499 20.5188 87.2764 21.0325 87.2764 21.6075ZM86.1954 21.389C86.1954 20.9903 86.1072 20.6492 85.9309 20.3655C85.7545 20.0742 85.513 19.8557 85.2064 19.71C84.9074 19.5567 84.5739 19.48 84.2059 19.48C83.6769 19.48 83.2245 19.6487 82.8489 19.986C82.4809 20.3233 82.27 20.791 82.2164 21.389H86.1954ZM89.7042 16.49V25H88.6577V16.49H89.7042ZM94.2363 25.1035C93.646 25.1035 93.1093 24.9693 92.6263 24.701C92.151 24.4327 91.7753 24.0532 91.4993 23.5625C91.231 23.0642 91.0968 22.4892 91.0968 21.8375C91.0968 21.1935 91.2348 20.6262 91.5108 20.1355C91.7945 19.6372 92.1778 19.2577 92.6608 18.997C93.1438 18.7287 93.6843 18.5945 94.2823 18.5945C94.8803 18.5945 95.4208 18.7287 95.9038 18.997C96.3868 19.2577 96.7663 19.6333 97.0423 20.124C97.326 20.6147 97.4678 21.1858 97.4678 21.8375C97.4678 22.4892 97.3221 23.0642 97.0308 23.5625C96.7471 24.0532 96.36 24.4327 95.8693 24.701C95.3786 24.9693 94.8343 25.1035 94.2363 25.1035ZM94.2363 24.1835C94.612 24.1835 94.9646 24.0953 95.2943 23.919C95.624 23.7427 95.8885 23.4782 96.0878 23.1255C96.2948 22.7728 96.3983 22.3435 96.3983 21.8375C96.3983 21.3315 96.2986 20.9022 96.0993 20.5495C95.9 20.1968 95.6393 19.9362 95.3173 19.7675C94.9953 19.5912 94.6465 19.503 94.2708 19.503C93.8875 19.503 93.5348 19.5912 93.2128 19.7675C92.8985 19.9362 92.6455 20.1968 92.4538 20.5495C92.2621 20.9022 92.1663 21.3315 92.1663 21.8375C92.1663 22.3512 92.2583 22.7843 92.4423 23.137C92.634 23.4897 92.887 23.7542 93.2013 23.9305C93.5156 24.0992 93.8606 24.1835 94.2363 24.1835ZM99.8903 19.8595C100.097 19.4992 100.404 19.2002 100.81 18.9625C101.224 18.7172 101.703 18.5945 102.248 18.5945C102.807 18.5945 103.313 18.7287 103.766 18.997C104.226 19.2653 104.586 19.6448 104.847 20.1355C105.107 20.6185 105.238 21.182 105.238 21.826C105.238 22.4623 105.107 23.0297 104.847 23.528C104.586 24.0263 104.226 24.4135 103.766 24.6895C103.313 24.9655 102.807 25.1035 102.248 25.1035C101.711 25.1035 101.236 24.9847 100.822 24.747C100.415 24.5017 100.105 24.1988 99.8903 23.8385V27.99H98.8438V18.698H99.8903V19.8595ZM104.168 21.826C104.168 21.3507 104.072 20.9367 103.881 20.584C103.689 20.2313 103.428 19.963 103.099 19.779C102.777 19.595 102.42 19.503 102.029 19.503C101.646 19.503 101.289 19.5988 100.96 19.7905C100.638 19.9745 100.377 20.2467 100.178 20.607C99.9861 20.9597 99.8903 21.3698 99.8903 21.8375C99.8903 22.3128 99.9861 22.7307 100.178 23.091C100.377 23.4437 100.638 23.7158 100.96 23.9075C101.289 24.0915 101.646 24.1835 102.029 24.1835C102.42 24.1835 102.777 24.0915 103.099 23.9075C103.428 23.7158 103.689 23.4437 103.881 23.091C104.072 22.7307 104.168 22.309 104.168 21.826ZM112.365 21.6075C112.365 21.8068 112.354 22.0177 112.331 22.24H107.294C107.332 22.861 107.543 23.3478 107.926 23.7005C108.317 24.0455 108.789 24.218 109.341 24.218C109.793 24.218 110.169 24.1145 110.468 23.9075C110.774 23.6928 110.989 23.4092 111.112 23.0565H112.239C112.07 23.6622 111.733 24.1567 111.227 24.54C110.721 24.9157 110.092 25.1035 109.341 25.1035C108.743 25.1035 108.206 24.9693 107.731 24.701C107.263 24.4327 106.895 24.0532 106.627 23.5625C106.358 23.0642 106.224 22.4892 106.224 21.8375C106.224 21.1858 106.355 20.6147 106.615 20.124C106.876 19.6333 107.24 19.2577 107.708 18.997C108.183 18.7287 108.727 18.5945 109.341 18.5945C109.939 18.5945 110.468 18.7248 110.928 18.9855C111.388 19.2462 111.74 19.6065 111.986 20.0665C112.239 20.5188 112.365 21.0325 112.365 21.6075ZM111.284 21.389C111.284 20.9903 111.196 20.6492 111.02 20.3655C110.843 20.0742 110.602 19.8557 110.295 19.71C109.996 19.5567 109.663 19.48 109.295 19.48C108.766 19.48 108.313 19.6487 107.938 19.986C107.57 20.3233 107.359 20.791 107.305 21.389H111.284ZM114.793 19.7215C114.977 19.3612 115.238 19.0813 115.575 18.882C115.92 18.6827 116.338 18.583 116.829 18.583V19.664H116.553C115.38 19.664 114.793 20.3003 114.793 21.573V25H113.747V18.698H114.793V19.7215Z" fill="#0BC8FF"/>
</svg>
